<?xml version="1.0" encoding="utf-8"?>
<!-- Generator: Adobe Illustrator 21.1.0, SVG Export Plug-In . SVG Version: 6.00 Build 0)  -->
<svg version="1.1" id="Слой_1" xmlns="http://www.w3.org/2000/svg" xmlns:xlink="http://www.w3.org/1999/xlink" x="0px" y="0px"
	 viewBox="0 0 120 120" style="enable-background:new 0 0 120 120;" xml:space="preserve">
<style type="text/css">
	.st0{fill:none;enable-background:new    ;}
	.st1{fill:#FFFFFF;}
	.st2{fill:#663E64;}
</style>
<path class="st0" d="z"/>
<circle class="st1" cx="60" cy="60" r="60"/>
<g>
	<path class="st2" d="M60,0C26.9,0,0,26.9,0,60c0,33.1,26.9,60,60,60s60-26.9,60-60C120,26.9,93.1,0,60,0z M91.7,87.5l-4.8,4.8
		c-0.9,0.9-3.4,1.4-3.4,1.4c-15.2,0.1-29.8-5.8-40.6-16.6C32.1,66.4,26.1,51.7,26.2,36.4c0,0,0.6-2.4,1.4-3.3l4.8-4.8
		c1.8-1.8,5.1-2.6,7.5-1.8l1,0.3c2.4,0.8,4.8,3.4,5.5,5.8l2.4,8.9c0.7,2.4-0.2,5.8-2,7.6l-3.2,3.2c3.1,11.7,12.3,20.8,24,24l3.2-3.2
		c1.8-1.8,5.2-2.6,7.6-2l8.9,2.4c2.4,0.7,5,3.1,5.8,5.5l0.3,1C94.2,82.4,93.4,85.8,91.7,87.5z"/>
</g>
</svg>
