<?xml version="1.0" encoding="utf-8"?>
<!-- Generator: Adobe Illustrator 19.0.1, SVG Export Plug-In . SVG Version: 6.00 Build 0)  -->
<svg version="1.1" id="Слой_1" xmlns="http://www.w3.org/2000/svg" xmlns:xlink="http://www.w3.org/1999/xlink" x="0px" y="0px"
	 viewBox="-78.2 368.1 462.4 65.7" style="enable-background:new -78.2 368.1 462.4 65.7;" xml:space="preserve">
<style type="text/css">
	.st0{fill:#383838;}
	.st1{fill:#5D4063;}
</style>
<g>
	<path class="st0" d="M31.4,401.7L39,379l7.7,22.7L58,371.3h-3.8l-7.5,21.5l-7.8-22.7l-7.7,22.7l-7.4-21.5H20L31.4,401.7L31.4,401.7
		z M64.8,400.5v-29.3h-3.5v29.3H64.8L64.8,400.5z M75.2,400.5v-22l21.4,23.1v-30.4h-3.3v22.2L71.9,370v30.4L75.2,400.5L75.2,400.5z
		 M107.2,374.5h2.2c3.5,0,6,0.2,7.5,0.5c1.4,0.3,2.6,0.9,3.5,1.6c1.2,1,2.1,2.3,2.7,3.9s0.9,3.4,0.9,5.4s-0.3,3.9-0.9,5.4
		c-0.6,1.6-1.6,2.9-2.7,3.9c-0.9,0.8-2,1.3-3.4,1.6c-1.4,0.3-3.9,0.5-7.5,0.5h-2.2v-22.8H107.2z M109.2,400.5h1.3
		c3.4,0,6-0.2,7.6-0.6c1.6-0.5,3.1-1.1,4.4-2.1c1.7-1.3,3-2.9,3.9-5c0.9-2,1.3-4.3,1.3-6.9s-0.5-5-1.3-7c-0.9-2-2.1-3.7-3.8-5
		c-1.3-1-2.8-1.7-4.5-2.1s-4.6-0.6-8.8-0.6h-5.6v29.3L109.2,400.5L109.2,400.5z M143,397.1c-1.4-0.6-2.7-1.5-3.9-2.7
		c-1.1-1.2-2-2.5-2.6-3.9s-0.9-2.9-0.9-4.6c0-1.6,0.3-3.2,0.9-4.7s1.5-2.8,2.6-3.9s2.4-2,3.9-2.6s3-0.9,4.6-0.9s3.2,0.3,4.6,0.9
		s2.7,1.5,3.9,2.6c1.1,1.1,2,2.5,2.6,3.9c0.6,1.5,0.9,3,0.9,4.7c0,1.6-0.3,3.2-0.9,4.6s-1.5,2.7-2.6,3.9c-1.1,1.1-2.5,2-3.9,2.7
		c-1.5,0.6-3,0.9-4.6,0.9S144.5,397.8,143,397.1L143,397.1z M162.1,380c-0.8-1.9-1.9-3.5-3.4-5c-1.5-1.4-3.2-2.5-5.1-3.3
		s-3.9-1.1-6-1.1c-2,0-4.1,0.4-6,1.1c-1.9,0.8-3.6,1.9-5.1,3.3s-2.6,3.1-3.4,5s-1.2,3.9-1.2,5.9c0,2.1,0.4,4.1,1.2,5.9
		c0.8,1.8,1.9,3.5,3.4,5c1.5,1.4,3.2,2.5,5.1,3.3s3.9,1.2,6,1.2c2,0,4.1-0.4,6-1.2c1.9-0.8,3.6-1.9,5.1-3.3s2.6-3.1,3.4-4.9
		c0.8-1.9,1.1-3.9,1.1-5.9C163.3,383.9,162.9,381.9,162.1,380L162.1,380z M176.5,401.7l7.6-22.7l7.7,22.7l11.3-30.4h-3.8l-7.5,21.5
		l-7.8-22.7l-7.7,22.7l-7.4-21.5h-3.8L176.5,401.7L176.5,401.7z M221.9,400.5V386h12v-3.2h-12v-8.4h12v-3.2h-15.4v29.3L221.9,400.5
		L221.9,400.5z M250.9,388.6h-9.3l4.7-10.8L250.9,388.6L250.9,388.6z M233,400.5h3.8l3.8-9H252l3.8,9h3.8l-13.3-30.4L233,400.5
		L233,400.5z M269,382.4c-1.4-0.6-2.3-1.3-3-2c-0.6-0.8-0.9-1.7-0.9-2.7c0-1.2,0.4-2.3,1.3-3.1c0.8-0.8,1.9-1.2,3.2-1.2
		c1,0,1.9,0.3,2.7,0.8c0.8,0.6,1.6,1.4,2.2,2.5l2.9-1.8c-0.7-1.4-1.7-2.5-3-3.3c-1.3-0.7-2.8-1.1-4.6-1.1c-2.4,0-4.4,0.7-5.9,2
		c-1.6,1.4-2.3,3.1-2.3,5.2c0,1.8,0.5,3.3,1.4,4.6c0.9,1.3,2.4,2.3,4.3,3.2l3.6,1.5c1.5,0.7,2.7,1.5,3.4,2.5
		c0.8,0.9,1.1,2.1,1.1,3.4c0,1.6-0.5,2.9-1.6,3.9s-2.5,1.5-4.2,1.5c-1.5,0-2.7-0.5-3.7-1.4s-1.7-2.3-2.1-4.1l-3.2,1.6
		c0.5,2.2,1.6,3.9,3.2,5c1.6,1.2,3.5,1.8,5.8,1.8c2.8,0,5.1-0.8,6.8-2.5c1.7-1.6,2.6-3.8,2.6-6.5c0-1.8-0.5-3.4-1.4-4.8
		c-1-1.4-2.4-2.4-4.3-3.2L269,382.4L269,382.4z M287.1,400.5v-14.7h15.6v14.7h3.5v-29.3h-3.5v11.3h-15.6v-11.3h-3.5v29.3H287.1
		L287.1,400.5z M316.7,400.5v-29.3h-3.5v29.3H316.7L316.7,400.5z M333.5,397.1c-1.4-0.6-2.7-1.5-3.9-2.7c-1.1-1.2-2-2.5-2.6-3.9
		s-0.9-2.9-0.9-4.6c0-1.6,0.3-3.2,0.9-4.7c0.6-1.5,1.5-2.8,2.6-3.9s2.4-2,3.9-2.6s3-0.9,4.6-0.9s3.2,0.3,4.6,0.9
		c1.4,0.6,2.7,1.5,3.9,2.6c1.1,1.1,2,2.5,2.6,3.9c0.6,1.5,0.9,3,0.9,4.7c0,1.6-0.3,3.2-0.9,4.6c-0.6,1.4-1.5,2.7-2.6,3.9
		c-1.1,1.1-2.5,2-3.9,2.7c-1.5,0.6-3,0.9-4.6,0.9S334.9,397.8,333.5,397.1L333.5,397.1z M352.6,380c-0.8-1.9-1.9-3.5-3.4-5
		c-1.5-1.4-3.2-2.5-5.1-3.3c-1.9-0.8-3.9-1.1-6-1.1c-2,0-4.1,0.4-6,1.1c-1.9,0.8-3.6,1.9-5.1,3.3s-2.6,3.1-3.4,5
		c-0.8,1.9-1.2,3.9-1.2,5.9c0,2.1,0.4,4.1,1.2,5.9s1.9,3.5,3.4,5c1.5,1.4,3.2,2.5,5.1,3.3c1.9,0.8,3.9,1.2,6,1.2c2,0,4.1-0.4,6-1.2
		c1.9-0.8,3.6-1.9,5.1-3.3s2.6-3.1,3.4-4.9c0.8-1.9,1.1-3.9,1.1-5.9C353.7,383.9,353.4,381.9,352.6,380L352.6,380z M362.8,400.5v-22
		l21.4,23.1v-30.4h-3.3v22.2L359.5,370v30.4L362.8,400.5L362.8,400.5z"/>
	<path class="st0" d="M26.1,430.7c1.8,0,3.1-0.1,3.8-0.3c0.8-0.2,1.4-0.6,1.9-1.1s0.8-1,1.1-1.7c0.3-0.7,0.4-1.4,0.4-2.1
		c0-1.2-0.3-2.3-0.9-3c-0.6-0.8-1.5-1.3-2.6-1.5c0.9-0.3,1.6-0.7,2-1.4c0.5-0.7,0.7-1.5,0.7-2.4c0-0.8-0.2-1.6-0.5-2.2
		c-0.3-0.7-0.8-1.2-1.4-1.7c-0.5-0.3-1-0.6-1.6-0.7s-1.6-0.2-3-0.2h-3.8v18.3L26.1,430.7L26.1,430.7z M26.1,422.2h0.6
		c0.8,0,1.4,0,1.8,0.1s0.7,0.2,1,0.4c0.5,0.3,0.9,0.7,1.1,1.2c0.3,0.5,0.4,1.1,0.4,1.7s-0.1,1.1-0.3,1.6c-0.2,0.5-0.5,0.8-0.9,1.1
		c-0.3,0.2-0.7,0.4-1.2,0.5s-1.4,0.1-2.5,0.1h-1.7v-6.7L26.1,422.2L26.1,422.2z M26.1,414.3c1.6,0,2.8,0.2,3.4,0.7s0.9,1.3,0.9,2.5
		c0,1.1-0.3,1.8-0.9,2.3c-0.6,0.4-1.7,0.7-3.3,0.7h-1.7v-6.1h1.6V414.3z M42.5,430.7v-8.4l6.2-9.9h-2.5l-4.8,7.9l-4.8-7.9h-2.5
		l6.2,9.9v8.4H42.5L42.5,430.7z M61.7,422.5h0.6c1.4,0,2.3-0.1,3-0.2c0.6-0.2,1.2-0.4,1.6-0.7c0.6-0.4,1-1,1.4-1.7
		c0.3-0.7,0.5-1.5,0.5-2.4s-0.2-1.7-0.5-2.4c-0.3-0.7-0.8-1.3-1.4-1.7c-0.5-0.3-1-0.6-1.6-0.7s-1.6-0.2-3-0.2h-3.8v18.3h2.1v-8.2
		L61.7,422.5L61.7,422.5z M60.6,414.4h1.1c1.8,0,3.1,0.2,3.7,0.7c0.7,0.5,1,1.3,1,2.5c0,1.1-0.3,1.8-1,2.3c-0.6,0.4-1.9,0.7-3.8,0.7
		h-1.1L60.6,414.4L60.6,414.4z M71.4,423.8c0,2.5,0.6,4.3,1.8,5.6c1.2,1.2,2.9,1.8,5.3,1.8s4.1-0.6,5.3-1.8c1.2-1.2,1.8-3.1,1.8-5.6
		v-11.4h-2.2v11.4c0,1.8-0.4,3.2-1.2,4.1c-0.8,0.9-2,1.3-3.7,1.3s-2.9-0.4-3.7-1.3c-0.8-0.9-1.2-2.2-1.2-4.1v-11.4h-2.2L71.4,423.8
		L71.4,423.8z M92,430.7V422h0.3l6.7,8.7h2.8l-7-8.7h0.4c1.6,0,2.8-0.4,3.7-1.2c0.8-0.8,1.3-1.9,1.3-3.4c0-0.9-0.2-1.7-0.5-2.4
		c-0.3-0.7-0.7-1.3-1.3-1.7c-0.4-0.3-0.9-0.6-1.5-0.7s-1.5-0.2-2.7-0.2h-4.3v18.3L92,430.7L92,430.7z M93.7,414.3
		c1.7,0,2.8,0.2,3.4,0.7s0.9,1.3,0.9,2.5c0,1.1-0.3,1.8-0.9,2.3c-0.6,0.4-1.7,0.7-3.4,0.7H92v-6.1h1.7V414.3z M108.7,422.5h0.6
		c1.4,0,2.3-0.1,3-0.2c0.6-0.2,1.2-0.4,1.6-0.7c0.6-0.4,1-1,1.4-1.7c0.3-0.7,0.5-1.5,0.5-2.4s-0.2-1.7-0.5-2.4
		c-0.3-0.7-0.8-1.3-1.4-1.7c-0.5-0.3-1-0.6-1.6-0.7s-1.6-0.2-3-0.2h-3.8v18.3h2.1v-8.2L108.7,422.5L108.7,422.5z M107.6,414.4h1.1
		c1.8,0,3.1,0.2,3.7,0.7c0.7,0.5,1,1.3,1,2.5c0,1.1-0.3,1.8-1,2.3c-0.6,0.4-1.9,0.7-3.8,0.7h-1.1L107.6,414.4L107.6,414.4z
		 M118.4,423.8c0,2.5,0.6,4.3,1.8,5.6c1.2,1.2,2.9,1.8,5.3,1.8s4.1-0.6,5.3-1.8c1.2-1.2,1.8-3.1,1.8-5.6v-11.4h-2.2v11.4
		c0,1.8-0.4,3.2-1.2,4.1c-0.8,0.9-2,1.3-3.7,1.3s-2.9-0.4-3.7-1.3c-0.8-0.9-1.2-2.2-1.2-4.1v-11.4h-2.2L118.4,423.8L118.4,423.8z
		 M139.1,430.7V422h0.3l6.7,8.7h2.8l-7-8.7h0.4c1.6,0,2.8-0.4,3.7-1.2c0.8-0.8,1.3-1.9,1.3-3.4c0-0.9-0.2-1.7-0.5-2.4
		c-0.3-0.7-0.7-1.3-1.3-1.7c-0.4-0.3-0.9-0.6-1.5-0.7s-1.5-0.2-2.7-0.2H137v18.3L139.1,430.7L139.1,430.7z M140.7,414.3
		c1.7,0,2.8,0.2,3.4,0.7s0.9,1.3,0.9,2.5c0,1.1-0.3,1.8-0.9,2.3c-0.6,0.4-1.7,0.7-3.4,0.7H139v-6.1h1.7V414.3z"/>
	<path class="st1" d="M-31.2,368.1v0.8c0,15.1,12.3,27.4,27.3,27.4h0.8v4.6h-0.8c-17.6,0-31.9-14.3-31.9-31.9v-0.8h4.6V368.1z"/>
	<path class="st1" d="M-22.2,368.1v0.8c0,10.1,8.2,18.4,18.4,18.4H-3v4.4h-0.8c-12.5,0-22.7-10.2-22.7-22.7v-0.8L-22.2,368.1
		L-22.2,368.1z"/>
	<path class="st1" d="M-14.1,368.1v0.8c0,5.6,4.6,10.2,10.2,10.2h0.8v4.1h-0.8c-7.9,0-14.3-6.4-14.3-14.3v-0.8L-14.1,368.1
		L-14.1,368.1z"/>
	<path class="st1" d="M-3.1,368.1v6.5c-3.6,0-6.5-2.9-6.5-6.5H-3.1L-3.1,368.1z"/>
	<path class="st1" d="M-35.8,384.8c0.4,4.4,3.1,8.1,5.4,9.7v39.3h-5.4V384.8L-35.8,384.8z"/>
	<path class="st1" d="M-3.1,405.7v28.1h-5.4v-28.5C-7.7,405.5-3.9,405.7-3.1,405.7L-3.1,405.7z"/>
	<path class="st1" d="M-12.2,404.5v29.4h-5.4v-31.2C-15.9,403.4-14.1,404-12.2,404.5L-12.2,404.5z"/>
	<path class="st1" d="M-21.3,400.8v33h-5.4v-36.7C-25.1,398.5-23.3,399.7-21.3,400.8L-21.3,400.8z"/>
	<polygon class="st1" points="-78.2,373.6 -41.6,373.6 -41.6,368.1 -78.2,368.1 	"/>
	<polygon class="st1" points="-78.2,383.7 -41.6,383.7 -41.6,378.2 -78.2,378.2 	"/>
	<polygon class="st1" points="-78.2,393.7 -41.6,393.7 -41.6,388.2 -78.2,388.2 	"/>
	<polygon class="st1" points="-78.2,403.7 -41.6,403.7 -41.6,398.3 -78.2,398.3 	"/>
	<polygon class="st1" points="-78.2,413.8 -41.6,413.8 -41.6,408.3 -78.2,408.3 	"/>
	<polygon class="st1" points="-78.2,423.8 -41.6,423.8 -41.6,418.3 -78.2,418.3 	"/>
	<polygon class="st1" points="-78.2,433.9 -41.6,433.9 -41.6,428.4 -78.2,428.4 	"/>
</g>
</svg>
